# AST/ASF file generated using VICON BodyLanguage
# -----------------------------------------------
:version 1.10
:name VICON
:units
  mass 1.0
  length 0.45
  angle deg
:documentation
   .ast/.asf automatically generated from VICON data using
   VICON BodyBuilder and BodyLanguage model FoxedUp or BRILLIANT.MOD
:root
   order TX TY TZ RX RY RZ
   axis XYZ
   position 0 0 0  
   orientation 0 0 0 
:bonedata
  begin
     id 1 
     name lhipjoint
     direction 0.566809 -0.746272 0.349008 
     length 2.40479 
     axis 0 0 0  XYZ
  end
  begin
     id 2 
     name lfemur
     direction 0.34202 -0.939693 0  
     length 7.1578  
     axis 0 0 20  XYZ
    dof rx ry rz
    limits (-160.0 20.0)
           (-70.0 70.0)
           (-60.0 70.0)
  end
  begin
     id 3 
     name ltibia
     direction 0.34202 -0.939693 0   
     length 7.49137   
     axis 0 0 20   XYZ
    dof rx
    limits (-10.0 170.0)
  end
  begin
     id 4 
     name lfoot
     direction 0.0665746 -0.182912 0.980873   
     length 2.36784   
     axis -90 7.62852e-016 20   XYZ
    dof rx rz
    limits (-45.0 90.0)
           (-70.0 20.0)
  end
  begin
     id 5 
     name ltoes
     direction 1.53601e-011 -4.22058e-011 1   
     length 1.18966   
     axis -90 7.62852e-016 20   XYZ
    dof rx
    limits (-90.0 20.0)
  end
  begin
     id 6 
     name rhipjoint
     direction -0.550236 -0.756381 0.353735   
     length 2.37265  
     axis 0 0 0  XYZ 
  end
  begin
     id 7 
     name rfemur
     direction -0.34202 -0.939693 0   
     length 7.43386   
     axis 0 0 -20   XYZ
    dof rx ry rz
    limits (-160.0 20.0)
           (-70.0 70.0)
           (-70.0 60.0)
  end
  begin
     id 8 
     name rtibia
     direction -0.34202 -0.939693 0   
     length 7.50908   
     axis 0 0 -20   XYZ
    dof rx
    limits (-10.0 170.0)
 end
 begin
     id 9 
     name rfoot
     direction -0.0683029 -0.187661 0.979856   
     length 2.41173  
     axis -90 -7.62852e-016 -20   XYZ
    dof rx rz
    limits (-45.0 90.0)
           (-20.0 70.0)
  end
  begin
     id 10 
     name rtoes
     direction -1.53528e-011 -4.21968e-011 1   
     length 1.21082   
     axis -90 -7.62852e-016 -20   XYZ
    dof rx
    limits (-90.0 20.0)
  end
  begin
     id 11 
     name lowerback
     direction 0.013823 0.995423 -0.0945635   
     length 2.04495   
     axis 0 0 0   XYZ
    dof rx ry rz
    limits (-20.0 45.0)
           (-30.0 30.0)
           (-30.0 30.0)
  end
  begin
     id 12 
     name upperback
     direction 0.0276657 0.9994 -0.020853   
     length 2.05008   
     axis 0 0 0   XYZ
    dof rx ry rz
    limits (-20.0 45.0)
           (-30.0 30.0)
           (-30.0 30.0)
  end
  begin
     id 13 
     name thorax
     direction 0.019782 0.999531 0.0233827   
     length 2.06488   
     axis 0 0 0   XYZ
    dof rx ry rz
    limits (-20.0 45.0)
           (-30.0 30.0)
           (-30.0 30.0)
  end
  begin
     id 14 
     name lowerneck
     direction -0.0308541 0.994709 0.0979874   
     length 1.75553   
     axis 0 0 0   XYZ
    dof rx ry rz
    limits (-20.0 45.0)
           (-30.0 30.0)
           (-30.0 30.0)
  end
  begin
     id 15 
     name upperneck
     direction 0.0588398 0.995804 -0.0700903   
     length 1.76878   
     axis 0 0 0   XYZ
    dof rx ry rz
    limits (-20.0 45.0)
           (-30.0 30.0)
           (-30.0 30.0)
  end
  begin
     id 16
     name head
     direction 0.0209966 0.999159 -0.0352225  
     length 1.77193  
     axis 0 0 0   XYZ
    dof rx ry rz
    limits (-20.0 45.0)
           (-30.0 30.0)
           (-30.0 30.0)
  end
  begin
     id 17 
     name lclavicle
     direction 0.938182 0.335073 -0.0868338  
     length 3.58396  
     axis 0 0 0   XYZ
    dof ry rz
    limits (-20.0 10.0)
           (0.0 20.0)
  end
  begin
     id 18 
     name lhumerus
     direction 1 -4.48971e-011 -1.26313e-017   
     length 4.983   
     axis 180 -30 -90   XYZ
    dof rx ry rz
    limits (-60.0 90.0)
           (-90.0 90.0)
           (-90.0 90.0)
  end
  begin
     id 19
     name lradius
     direction 1 -4.48948e-011 -5.89033e-027   
     length 3.48356   
     axis 180 -30 -90   XYZ
    dof rx
    limits (-10.0 170.0)
  end
  begin
     id 20
     name lwrist
     direction 1 -4.48977e-011 -1.48983e-026   
     length 1.74178   
     axis 9.0955e-015 90 90   XYZ
    dof ry
    limits (-180.0 0.0)
 end
  begin
     id 21 
     name lhand
     direction 1 -4.49046e-011 -2.98066e-026   
     length 0.715259   
     axis 1.90115e-014 90 90   XYZ
    dof rx rz
    limits (-90.0 90.0)
           (-45.0 45.0)
  end
  begin
     id 22 
     name lfingers
     direction 1 -4.48907e-011 -5.95731e-026   
     length 0.576661   
     axis 3.80223e-014 90 90   XYZ
    dof rx
    limits (0.0 90.0)
  end
  begin
     id 23
     name lthumb
     direction 0.707107 -6.34963e-011 0.707107   
     length 0.827973   
     axis -90 45 -3.84942e-014   XYZ
    dof rx rz
    limits (-45.0 45.0)
           (-45.0 45.0)
  end
  begin
     id 24 
     name rclavicle
     direction -0.909637 0.398485 -0.11735   
     length 3.44819  
     axis 0 0 0   XYZ 
    dof ry rz
    limits (-10.0 20.0)
           (-20.0 0.0)
  end
  begin
     id 25 
     name rhumerus
     direction -1 -4.48978e-011 -1.09333e-027  
     length 5.2419   
     axis 180 30 90   XYZ
    dof rx ry rz
    limits (-90.0 60.0)
           (-90.0 90.0)
           (-90.0 90.0)
  end
  begin
     id 26 
     name rradius
     direction -1 -4.48953e-011 -7.61841e-027   
     length 3.44417   
     axis 180 30 90   XYZ
    dof rx
    limits (-10.0 170.0)
  end
  begin
     id 27 
     name rwrist
     direction -1 -4.48977e-011 -1.48983e-026   
     length 1.72209   
     axis 9.0955e-015 -90 -90   XYZ
    dof ry
    limits (-180.0 0.0)
  end
  begin
     id 28
     name rhand
     direction -1 -4.49027e-011 -2.98038e-026   
     length 0.622529   
     axis 1.90115e-014 -90 -90   XYZ
    dof rx rz
    limits (-90.0 90.0)
           (-45.0 45.0)
  end
  begin
     id 29
     name rfingers
     direction -1 -4.48838e-011 -5.95531e-026   
     length 0.501899   
     axis 3.80223e-014 -90 -90   XYZ
    dof rx
    limits (0.0 90.0)
  end
  begin
     id 30
     name rthumb
     direction -0.707107 -6.34937e-011 0.707107   
     length 0.720629   
     axis -90 -45 3.84942e-014   XYZ
    dof rx rz
    limits (-45.0 45.0)
           (-45.0 45.0)
  end
:hierarchy
  begin
    root lhipjoint rhipjoint lowerback
    lhipjoint lfemur
    lfemur ltibia
    ltibia lfoot
    lfoot ltoes
    rhipjoint rfemur
    rfemur rtibia
    rtibia rfoot
    rfoot rtoes
    lowerback upperback
    upperback thorax
    thorax lowerneck lclavicle rclavicle
    lowerneck upperneck
    upperneck head
    lclavicle lhumerus
    lhumerus lradius
    lradius lwrist
    lwrist lhand lthumb
    lhand lfingers
    rclavicle rhumerus
    rhumerus rradius
    rradius rwrist
    rwrist rhand rthumb
    rhand rfingers
  end

#!OML:ASF F:\VICON\USERDATA\Patient Classification 1\PLAYGROUND\JustinFriday\JustinFriday.ASF
:FULLY-SPECIFIED
:DEGREES
1
root 12.7274 17.7984 16.0108 74.6653 -83.9566 -72.42
lowerback -1.77314 -1.17219 1.57372
upperback -3.647 -1.59769 3.47274
thorax -2.69806 -0.834088 2.70399
lowerneck -5.18009 -5.86742 -9.13065
upperneck 13.3425 -7.01169 -1.63776
head 5.159 -4.06035 0.520933
rclavicle -2.88238e-015 1.59028e-015
rhumerus -29.4623 -6.65887 -82.0674
rradius 25.3942
rwrist -10.8175
rhand -17.2912 -24.3339
rfingers 7.12502
rthumb 8.95433 -54.1239
lclavicle -2.88238e-015 1.59028e-015
lhumerus 23.3947 -9.06903 57.776
lradius 129.207
lwrist -11.4378
lhand -45.3994 -35.0298
lfingers 7.12502
lthumb -18.1679 -5.8583
rfemur -4.70525 3.02964 29.7063
rtibia 28.5195
rfoot -19.3597 -7.51269
rtoes 19.61
lfemur -4.96524 0.502986 -12.2725
ltibia 28.9716
lfoot -20.9126 6.28226
ltoes -3.6259
2
root 12.7288 17.8002 16.018 75.6676 -83.7512 -73.2203
lowerback -2.03881 -1.27181 1.93654
upperback -3.62957 -1.74593 3.53956
thorax -2.53452 -0.919033 2.56236
lowerneck -5.47571 -5.75872 -9.1417
upperneck 13.4327 -6.83161 -1.59614
head 5.23209 -3.97274 0.537118
rclavicle 1.13307e-014 -3.97569e-016
rhumerus -29.2949 -6.21378 -82.3352
rradius 25.7181
rwrist -11.3617
rhand -17.4407 -24.3791
rfingers 7.12502
rthumb 8.81013 -54.1752
lclavicle 1.13307e-014 -3.97569e-016
lhumerus 23.702 -8.97379 57.8073
lradius 129.124
lwrist -11.8724
lhand -46.1875 -35.6994
lfingers 7.12502
lthumb -18.926 -6.60012
rfemur -4.8025 2.97264 29.9558
rtibia 28.3173
rfoot -19.1471 -7.74827
rtoes 18.3258
lfemur -5.28557 0.542567 -12.02
ltibia 29.1733
lfoot -21.0663 6.04364
ltoes -2.52764
3
root 12.733 17.7998 16.0226 80.0427 -83.6452 -77.5213
lowerback -2.01949 -1.26317 2.19075
upperback -3.6826 -1.73663 3.66224
thorax -2.60483 -0.922115 2.54895
lowerneck -5.72199 -5.58521 -9.28537
upperneck 13.7418 -6.57214 -1.44213
head 5.37115 -3.85545 0.612532
rclavicle 3.18552e-014 -2.5842e-014
rhumerus -29.3632 -5.81539 -82.5482
rradius 26.1297
rwrist -12.0685
rhand -18.1351 -24.1848
rfingers 7.12502
rthumb 8.13993 -54.008
lclavicle 3.18552e-014 -2.5842e-014
lhumerus 23.7895 -8.80752 57.9977
lradius 129.108
lwrist -12.2613
lhand -46.8445 -35.2485
lfingers 7.12502
lthumb -19.5578 -6.21216
rfemur -4.90084 3.14273 30.1405
rtibia 28.275
rfoot -18.9013 -7.80948
rtoes 17.4055
lfemur -5.31945 0.443803 -11.8999
ltibia 29.2124
lfoot -21.1665 6.29693
ltoes -0.998139
4
root 12.7321 17.7997 16.0261 84.5338 -83.6635 -81.9036
lowerback -2.02794 -1.29481 2.22081
upperback -3.80805 -1.77968 3.77199
thorax -2.72659 -0.946218 2.64898
lowerneck -5.88972 -5.38654 -9.22708
upperneck 14.0594 -6.2927 -1.43278
head 5.48626 -3.72922 0.616657
rclavicle 8.89561e-015 -1.39149e-014
rhumerus -29.5152 -5.79231 -82.6188
rradius 26.4517
rwrist -12.197
rhand -17.9443 -24.137
rfingers 7.12502
rthumb 8.32412 -53.953
lclavicle 8.89561e-015 -1.39149e-014
lhumerus 23.6778 -8.54801 58.2003
lradius 129.245
lwrist -12.3477
lhand -46.1992 -35.1869
lfingers 7.12502
lthumb -18.9373 -6.08876
rfemur -5.04387 3.44895 30.1583
rtibia 28.2781
rfoot -18.8386 -7.64261
rtoes 17.3352
lfemur -5.32622 0.417203 -11.9165
ltibia 29.2067
lfoot -21.1822 6.89326
ltoes -1.35414
5
root 12.7308 17.7989 16.0325 87.6104 -83.8003 -84.977
lowerback -2.03582 -1.36569 2.14401
upperback -3.83016 -1.87464 3.78856
thorax -2.73926 -0.991929 2.70979
lowerneck -5.97786 -5.28543 -8.90054
upperneck 14.0801 -6.164 -1.56589
head 5.48629 -3.65963 0.531421
rclavicle -3.926e-015 4.05521e-014
rhumerus -29.2356 -5.00646 -82.9995
rradius 26.1007
rwrist -13.0894
rhand -16.9801 -24.4204
rfingers 7.12502
rthumb 9.25452 -54.1973
lclavicle -3.926e-015 4.05521e-014
lhumerus 23.7359 -8.41247 58.1819
lradius 129.394
lwrist -12.0102
lhand -45.3766 -35.3118
lfingers 7.12502
lthumb -18.146 -6.13828
rfemur -5.08725 3.65035 29.9963
rtibia 28.3565
rfoot -18.9273 -7.34381
rtoes 17.8339
lfemur -5.20986 0.365587 -12.0905
ltibia 29.1457
lfoot -21.2558 7.22929
ltoes -0.833815
6
root 12.7311 17.7955 16.04 88.8129 -84.1513 -86.4093
lowerback -1.86527 -1.48719 1.87244
upperback -3.73469 -2.02741 3.71741
thorax -2.72441 -1.05904 2.79148
lowerneck -6.04854 -5.19713 -8.66709
upperneck 13.98 -6.05001 -1.6536
head 5.45132 -3.59389 0.476077
rclavicle -4.02042e-014 3.49861e-014
rhumerus -29.0563 -5.8558 -82.8847
rradius 26.1066
rwrist -12.3957
rhand -15.8084 -24.5981
rfingers 7.12502
rthumb 10.385 -54.3217
lclavicle -4.02042e-014 3.49861e-014
lhumerus 23.9011 -8.31326 58.1103
lradius 129.432
lwrist -11.8249
lhand -45.6733 -34.0485
lfingers 7.12502
lthumb -18.4314 -4.90172
rfemur -4.85266 3.97808 29.6429
rtibia 28.4337
rfoot -19.0419 -7.44443
rtoes 17.9215
lfemur -4.87672 0.450304 -12.4963
ltibia 29.0456
lfoot -21.2717 7.21472
ltoes -0.397227
7
root 12.7328 17.7925 16.0456 90.0144 -84.2885 -87.8303
lowerback -1.64829 -1.57374 1.80779
upperback -3.67159 -2.13335 3.71022
thorax -2.77545 -1.10891 2.82645
lowerneck -6.08589 -5.10198 -8.46618
upperneck 13.8826 -5.91598 -1.83613
head 5.41007 -3.52733 0.398469
rclavicle 4.57205e-015 3.10104e-014
rhumerus -28.972 -6.11318 -82.8842
rradius 26.1925
rwrist -12.3121
rhand -15.5607 -24.2241
rfingers 7.12502
rthumb 10.6239 -53.9355
lclavicle 4.57205e-015 3.10104e-014
lhumerus 23.9439 -8.22401 58.2595
lradius 129.472
lwrist -11.8493
lhand -46.1318 -33.7287
lfingers 7.12502
lthumb -18.8725 -4.62423
rfemur -4.67993 3.7248 29.4437
rtibia 28.5563
rfoot -19.1084 -7.09184
rtoes 17.6882
lfemur -4.56132 0.584104 -12.6511
ltibia 28.9189
lfoot -21.0644 7.2721
ltoes -1.43508
